<?xml version="1.0" encoding="UTF-8"?>
<!DOCTYPE svg PUBLIC "-//W3C//DTD SVG 1.1//EN" "http://www.w3.org/Graphics/SVG/1.1/DTD/svg11.dtd">
<svg xmlns="http://www.w3.org/2000/svg" version="1.1" width="764px" height="764px" style="shape-rendering:geometricPrecision; text-rendering:geometricPrecision; image-rendering:optimizeQuality; fill-rule:evenodd; clip-rule:evenodd" xmlns:xlink="http://www.w3.org/1999/xlink">
<g><path style="opacity:0.995" fill="#fefffe" d="M -0.5,-0.5 C 57.8333,-0.5 116.167,-0.5 174.5,-0.5C 177.289,75.673 210.289,134.506 273.5,176C 334.249,210.868 397.249,215.535 462.5,190C 528.882,159.279 569.715,108.112 585,36.5C 587.224,24.2634 588.39,11.9301 588.5,-0.5C 646.833,-0.5 705.167,-0.5 763.5,-0.5C 763.5,126.833 763.5,254.167 763.5,381.5C 704.5,381.5 645.5,381.5 586.5,381.5C 586.667,361.831 586.5,342.164 586,322.5C 530.923,357.319 470.757,376.819 405.5,381C 527.288,392.949 623.788,448.115 695,546.5C 739.27,611.872 761.77,684.205 762.5,763.5C 704.5,763.5 646.5,763.5 588.5,763.5C 586.174,692.672 556.84,636.172 500.5,594C 440.266,553.941 375.933,545.941 307.5,570C 232.207,601.974 188.374,658.474 176,739.5C 175.168,747.483 174.668,755.483 174.5,763.5C 116.167,763.5 57.8333,763.5 -0.5,763.5C -0.5,755.833 -0.5,748.167 -0.5,740.5C 9.54037,623.567 60.5404,529.067 152.5,457C 213.364,412.149 281.697,386.816 357.5,381C 238.785,370.909 143.619,318.743 72,224.5C 29.5293,165.259 5.36263,99.2593 -0.5,26.5C -0.5,17.5 -0.5,8.5 -0.5,-0.5 Z"/></g>
</svg>
