<svg
                    width="58"
                    height="58"
                    viewBox="0 0 58 58"
                    fill="none"
                    xmlns="http://www.w3.org/2000/svg"
                  >
                    <g clip-path="url(#clip0_172_162)">
                      <path
                        d="M28.9993 0.492188C44.7441 0.492188 57.5078 13.2559 57.5078 29.0007C57.5078 44.7455 44.7441 57.5091 28.9993 57.5091C13.2545 57.5091 0.490864 44.7455 0.490864 29.0007C0.490864 13.2559 13.2545 0.492188 28.9993 0.492188ZM28.9993 1.47524C13.7975 1.47524 1.47392 13.7988 1.47392 29.0007C1.47392 44.2025 13.7975 56.5261 28.9993 56.5261C44.2012 56.5261 56.5248 44.2025 56.5248 29.0007C56.5248 13.7988 44.2012 1.47524 28.9993 1.47524Z"
                        fill="black"
                      />
                      <path
                        fill-rule="evenodd"
                        clip-rule="evenodd"
                        d="M19.1409 28.8518L26.6907 20.9357C27.0428 20.5755 27.6142 20.5337 28.0252 20.8993C28.392 21.2249 28.4012 21.8615 28.0621 22.2162L22.0014 28.5608H37.3961C37.9178 28.5608 38.3398 28.9773 38.3398 29.4921C38.3398 30.0069 37.9177 30.4234 37.3961 30.4234H22.0014L28.0621 36.768C28.4012 37.1227 28.3773 37.743 28.0252 38.0849C27.6529 38.445 27.0372 38.4141 26.6907 38.0485L19.1409 30.1324C18.9197 29.9177 18.8791 29.7104 18.8754 29.4921C18.8754 29.2775 19.0081 28.9901 19.1409 28.8518Z"
                        fill="black"
                      />
                    </g>
                    <defs>
                      <clipPath id="clip0_172_162">
                        <rect width="58" height="58" fill="white" />
                      </clipPath>
                    </defs>
                  </svg>