<svg
                    width="58"
                    height="58"
                    viewBox="0 0 58 58"
                    fill="none"
                    xmlns="http://www.w3.org/2000/svg"
                  >
                    <g clip-path="url(#clip0_172_172)">
                      <path
                        d="M29.0007 0.492188C13.2559 0.492188 0.492188 13.2559 0.492188 29.0007C0.492188 44.7455 13.2559 57.5091 29.0007 57.5091C44.7455 57.5091 57.5091 44.7455 57.5091 29.0007C57.5091 13.2559 44.7455 0.492188 29.0007 0.492188ZM29.0007 1.47524C44.2025 1.47524 56.5261 13.7988 56.5261 29.0007C56.5261 44.2025 44.2025 56.5261 29.0007 56.5261C13.7988 56.5261 1.47524 44.2025 1.47524 29.0007C1.47524 13.7988 13.7988 1.47524 29.0007 1.47524Z"
                        fill="black"
                      />
                      <path
                        fill-rule="evenodd"
                        clip-rule="evenodd"
                        d="M38.8591 28.8518L31.3093 20.9357C30.9572 20.5755 30.3858 20.5337 29.9748 20.8993C29.608 21.2249 29.5988 21.8615 29.9379 22.2162L35.9986 28.5608H20.6039C20.0822 28.5608 19.6602 28.9773 19.6602 29.4921C19.6602 30.0069 20.0823 30.4234 20.6039 30.4234H35.9986L29.9379 36.768C29.5988 37.1227 29.6227 37.743 29.9748 38.0849C30.3471 38.445 30.9628 38.4141 31.3093 38.0485L38.8591 30.1324C39.0803 29.9177 39.1209 29.7104 39.1246 29.4921C39.1246 29.2775 38.9919 28.9901 38.8591 28.8518Z"
                        fill="black"
                      />
                    </g>
                    <defs>
                      <clipPath id="clip0_172_172">
                        <rect
                          width="58"
                          height="58"
                          fill="white"
                          transform="matrix(-1 0 0 1 58 0)"
                        />
                      </clipPath>
                    </defs>
                  </svg>