<svg
                          width="83"
                          height="100"
                          viewBox="0 0 83 100"
                          fill="none"
                          xmlns="http://www.w3.org/2000/svg"
                        >
                          <g clip-path="url(#clip0_138_2072)">
                            <path
                              d="M41.4991 100C36.8624 100 33.4989 94.7211 29.9433 89.1269C27.1757 84.7777 24.3167 80.2829 20.7803 78.4317C14.3033 75.0364 7.25932 72.7001 0.445958 70.4446L0.00390625 70.2991L17.4698 0L17.561 0.0727567C21.1551 2.96686 24.8933 5.49717 28.6748 7.6152C29.8424 8.27001 30.8082 9.45837 31.4665 11.0509C33.9842 17.1302 36.8239 22.8941 39.9087 28.1811C40.3315 28.9087 40.8985 29.3048 41.4991 29.3048C42.0997 29.3048 42.6667 28.9087 43.0895 28.1811C46.1743 22.9022 49.014 17.1382 51.5318 11.0509C52.1948 9.45028 53.1606 8.26192 54.3234 7.6152C58.1001 5.50526 61.8383 2.96686 65.4372 0.0727567L65.5285 0L65.5669 0.153597L82.9991 70.291L82.8838 70.3315C81.894 70.6629 80.8801 70.9863 79.8471 71.3177C73.0001 73.5166 65.2402 76.0065 59.1619 80.8731C56.6634 82.8699 54.5108 86.3217 52.4303 89.6686C49.2638 94.7454 45.9869 100 41.4991 100ZM0.268176 70.0566L0.479592 70.1293C7.29776 72.3848 14.3466 74.713 20.8332 78.1245C24.4128 80 27.291 84.5271 30.073 88.8925C33.5998 94.4382 36.9344 99.6766 41.4991 99.6766C46.0638 99.6766 49.014 94.6969 52.3005 89.4341C54.3955 86.0792 56.5577 82.6031 59.0851 80.5821C65.1873 75.6993 72.9568 73.2094 79.8135 71.0024C80.8033 70.6871 81.7787 70.3719 82.7348 70.0566L65.4324 0.43654C61.8575 3.30639 58.1433 5.82053 54.3907 7.92239C53.2615 8.55295 52.3294 9.70089 51.6951 11.2369C49.1725 17.3323 46.3232 23.1124 43.2337 28.4074C42.7724 29.1916 42.1622 29.6281 41.5039 29.6281C40.8456 29.6281 40.2354 29.1916 39.7741 28.4074C36.6846 23.1124 33.8353 17.3323 31.3127 11.2369C30.6736 9.70089 29.7415 8.55295 28.6171 7.92239C24.8645 5.82053 21.1455 3.30639 17.5755 0.43654L0.268176 70.0566Z"
                              fill="#92DEED"
                            />
                            <path
                              d="M41.4995 89.7023C37.0837 89.7023 33.9605 84.4315 30.65 78.8454C28.0745 74.4962 25.4078 70.0014 22.0588 68.134C15.9037 64.7064 8.87411 62.2326 2.67578 60.0418L2.71422 59.7266C8.92216 61.9173 15.9566 64.3992 22.1213 67.8268C25.5183 69.7185 28.1995 74.2456 30.7893 78.619C34.0711 84.1566 37.1654 89.379 41.5043 89.379C45.8431 89.379 48.5915 84.4072 51.6426 79.1445C53.5934 75.7815 55.6115 72.2973 57.9947 70.2924C63.751 65.4339 71.1698 62.8794 77.7141 60.6239C78.5885 60.3248 79.4534 60.0257 80.2943 59.7266L80.3327 60.0418C79.4919 60.341 78.627 60.6401 77.7525 60.9392C71.2226 63.1946 63.8183 65.7411 58.0812 70.5754C55.7268 72.5641 53.7183 76.0241 51.782 79.3709C48.8365 84.4557 45.7902 89.7023 41.5043 89.7023H41.4995Z"
                              fill="#92DEED"
                            />
                            <path
                              d="M41.5008 81.7852C37.7337 81.7852 34.524 75.6413 31.4152 69.6914C29.0945 65.2452 26.8986 61.0495 24.5586 59.4408C20.4312 56.6033 14.5885 54.4853 9.43759 52.6179C7.82314 52.0358 6.29999 51.478 4.92578 50.9364L4.96903 50.6211C6.34323 51.1627 7.86639 51.7124 9.47603 52.2945C14.6365 54.1619 20.4841 56.288 24.6259 59.1336C27.0091 60.7666 29.2146 64.9946 31.5546 69.4732C34.6297 75.3664 37.8154 81.4538 41.4959 81.4538C45.3591 81.4538 48.4198 75.4392 51.3845 69.6267C53.6764 65.132 55.8386 60.8879 58.3612 59.1336C62.6904 56.1263 67.9758 54.2508 73.0882 52.4319C74.8228 51.8175 76.4613 51.2355 78.0181 50.6211L78.0613 50.9364C76.4997 51.5508 74.8612 52.1328 73.1267 52.7472C68.0239 54.558 62.7481 56.4335 58.4333 59.4327C55.9491 61.1546 53.8013 65.3745 51.5286 69.8369C48.5399 75.706 45.4456 81.7771 41.4959 81.7771L41.5008 81.7852Z"
                              fill="#92DEED"
                            />
                            <path
                              d="M40.8698 72.1273C36.9105 72.1273 34.6138 66.8888 32.3843 61.8201C30.8179 58.2551 29.1938 54.5687 27.0028 52.6285C23.1829 49.2575 16.7107 46.7272 11.5118 44.6981C9.84447 44.0432 8.26846 43.4289 6.9375 42.8468L6.98555 42.5315C8.3117 43.1136 9.88771 43.728 11.555 44.3747C16.7635 46.4119 23.2502 48.9422 27.0893 52.3294C29.3188 54.2939 30.9572 58.0125 32.5333 61.6099C34.9549 67.1233 37.2469 72.3213 41.4896 71.7393C45.4873 71.1896 47.6303 66.6463 49.8982 61.8282C51.5751 58.2631 53.3145 54.5768 55.9091 52.3213C60.0894 48.6835 65.8505 46.4846 70.9341 44.5445C72.7407 43.8573 74.4465 43.2025 76.0129 42.5234L76.0609 42.8387C74.4897 43.5259 72.784 44.1726 70.9773 44.8678C65.9081 46.7999 60.1567 48.9988 56.0004 52.6204C53.4442 54.8436 51.7192 58.5057 50.0519 62.0384C47.7552 66.905 45.5882 71.5049 41.5088 72.0707C41.2926 72.1031 41.0764 72.1112 40.8698 72.1112V72.1273Z"
                              fill="#92DEED"
                            />
                            <path
                              d="M40.8975 64.8729C37.1113 64.8729 34.8049 59.4727 32.5658 54.2504C31.1195 50.8712 29.6252 47.3708 27.7465 45.3741C24.6425 42.0758 17.8388 39.3353 12.8705 37.3304C11.2464 36.6756 9.84341 36.1097 8.73828 35.6004L8.79113 35.2852C9.89626 35.7945 11.2945 36.3603 12.9186 37.0151C17.9012 39.02 24.7242 41.7686 27.8522 45.0992C29.7646 47.1283 31.2685 50.653 32.7244 54.0564C35.1509 59.7314 37.4476 65.1073 41.4885 64.501C45.3469 63.9351 47.6004 59.1089 49.9884 54.0079C51.5116 50.75 53.0876 47.3789 55.1393 45.0992C58.546 41.3078 64.5665 39.0362 69.4003 37.2172C71.1637 36.5544 72.8261 35.9238 74.2004 35.2932L74.2532 35.6085C72.8742 36.2472 71.2069 36.8696 69.4435 37.5325C64.6242 39.3514 58.6228 41.6069 55.245 45.3741C53.2173 47.6295 51.6509 50.9763 50.1374 54.2181C47.7205 59.3757 45.443 64.2504 41.503 64.8324C41.2963 64.8648 41.0945 64.881 40.8927 64.881L40.8975 64.8729Z"
                              fill="#92DEED"
                            />
                            <path
                              d="M41.5 59.918C38.79 59.918 35.2392 53.281 32.1112 47.4281C30.1988 43.855 28.3922 40.4758 27.0132 39.0449C23.2365 35.1242 18.6286 32.9819 14.1793 30.9043C12.8531 30.2899 11.599 29.6997 10.3594 29.0692L10.417 28.762C11.6567 29.3925 12.906 29.9746 14.2321 30.589C18.7007 32.6666 23.3182 34.825 27.1189 38.7701C28.5171 40.2252 30.3334 43.6205 32.2553 47.2098C35.3593 53.0142 38.8765 59.5866 41.5048 59.5866C44.455 59.5866 46.9968 53.5558 49.2359 48.2284C50.5092 45.1969 51.7152 42.3432 52.8492 40.977C56.8036 36.2074 63.4824 33.0789 68.8543 30.5567C70.1949 29.9261 71.4682 29.3279 72.5925 28.7539L72.6502 29.0611C71.5211 29.6351 70.2526 30.2333 68.9072 30.8639C63.5545 33.378 56.8949 36.5065 52.9645 41.2357C51.8594 42.5696 50.6629 45.4071 49.3993 48.4144C47.1313 53.7984 44.5607 59.9099 41.5096 59.9099L41.5 59.918Z"
                              fill="#92DEED"
                            />
                            <path
                              d="M41.4993 53.9998C38.9191 53.9998 35.5172 47.3304 32.5142 41.4533C30.6979 37.8882 28.9777 34.5252 27.69 33.1267C24.1008 29.2383 19.685 27.0636 15.4183 24.9699C14.169 24.3555 12.9918 23.7815 11.8242 23.1509L11.8819 22.8438C13.0447 23.4662 14.2219 24.0402 15.4711 24.6546C19.7523 26.7564 24.1824 28.9311 27.7957 32.8518C29.1075 34.2746 30.8324 37.6538 32.6631 41.235C35.6373 47.0636 39.0104 53.6683 41.4993 53.6683C44.3342 53.6683 46.7655 47.5891 48.9133 42.2213C50.1145 39.214 51.2485 36.3765 52.3056 35.0588C56.0678 30.3377 62.4824 27.1606 67.638 24.6061C68.8873 23.9836 70.0693 23.4016 71.1168 22.8438L71.1745 23.1509C70.1222 23.7168 68.9402 24.2989 67.6909 24.9214C62.5496 27.4678 56.1543 30.6449 52.4209 35.3256C51.3926 36.6109 50.2683 39.4323 49.0767 42.4072C46.9049 47.8397 44.4399 53.9917 41.5041 53.9917L41.4993 53.9998Z"
                              fill="#92DEED"
                            />
                            <path
                              d="M40.8797 46.3367C37.6412 46.3367 35.2675 41.2276 32.769 35.8436C30.9575 31.939 29.0788 27.8969 26.8157 25.8436C24.0817 23.3618 20.7952 21.7207 17.6191 20.1362C16.0527 19.3521 14.5776 18.6164 13.1602 17.7838L13.2226 17.4766C14.6353 18.3092 16.1104 19.0449 17.672 19.829C20.8576 21.4216 24.149 23.0707 26.9022 25.5606C29.2037 27.6463 31.0921 31.7126 32.9179 35.6496C35.5414 41.3084 38.0208 46.6358 41.4851 45.9568C44.8197 45.2858 46.7513 41.2518 48.7982 36.9754C50.0571 34.348 51.3544 31.6399 53.0553 29.5137C57.053 24.5178 61.5216 22.0602 66.2544 19.4572C67.4028 18.8266 68.5944 18.1718 69.7668 17.4766L69.8293 17.7838C68.6521 18.479 67.4604 19.1338 66.3121 19.7644C61.5936 22.3593 57.1395 24.8169 53.1658 29.7724C51.4841 31.8743 50.1916 34.5663 48.9423 37.1775C46.8714 41.5024 44.911 45.593 41.4995 46.272C41.2833 46.3125 41.0767 46.3367 40.8701 46.3367H40.8797Z"
                              fill="#92DEED"
                            />
                            <path
                              d="M40.8915 41.4232C37.7731 41.4232 35.5196 36.3141 33.1364 30.9301C31.4066 27.0174 29.6192 22.9753 27.4474 20.922C24.8431 18.4644 21.6959 16.8153 18.6496 15.2146C17.1504 14.4305 15.7378 13.6867 14.3828 12.8541L14.4501 12.5469C15.8003 13.3715 17.2129 14.1152 18.7072 14.8993C21.7632 16.5 24.9248 18.1572 27.5435 20.6309C29.7489 22.7166 31.5508 26.7829 33.2901 30.728C35.7935 36.3868 38.1575 41.7304 41.4873 41.0271C44.7114 40.3399 46.5469 36.3141 48.4929 32.0457C49.6893 29.4183 50.9241 26.7102 52.5578 24.5841C56.3825 19.6124 60.6733 17.1386 65.2188 14.5113C66.3095 13.8807 67.4386 13.234 68.5534 12.5469L68.6206 12.8541C67.5011 13.5412 66.3719 14.196 65.2812 14.8266C60.755 17.4377 56.4786 19.9115 52.6779 24.8508C51.0635 26.9446 49.8382 29.6447 48.6466 32.2478C46.6766 36.5647 44.8171 40.6471 41.5161 41.3504C41.3047 41.3989 41.0981 41.4151 40.8963 41.4151L40.8915 41.4232Z"
                              fill="#92DEED"
                            />
                            <path
                              d="M40.8987 36.9187C37.8957 36.9187 35.7431 31.8096 33.4656 26.4256C31.8127 22.5129 30.1069 18.4628 28.0216 16.4175C25.5423 13.9842 22.5104 12.3189 19.5842 10.7183C18.1475 9.92601 16.7925 9.18228 15.5 8.3577L15.5673 8.05859C16.855 8.88317 18.21 9.6269 19.6466 10.4111C22.5824 12.0198 25.6239 13.6932 28.1225 16.1427C30.2415 18.2203 31.9616 22.2946 33.6241 26.2397C36.017 31.9066 38.2753 37.2502 41.4898 36.5307C44.6129 35.8274 46.3619 31.8096 48.2118 27.5493C49.3506 24.922 50.5326 22.2138 52.099 20.0958C55.7651 15.1483 59.8926 12.6503 64.2602 10.0149C65.2981 9.39247 66.3696 8.73766 67.4315 8.05859L67.4987 8.3577C66.432 9.04485 65.3605 9.69158 64.3227 10.3141C59.9694 12.9414 55.8564 15.4313 52.2191 20.3464C50.6719 22.4402 49.4995 25.1322 48.3656 27.7433C46.4917 32.0602 44.7187 36.1346 41.5138 36.8541C41.3072 36.9026 41.1006 36.9268 40.8987 36.9268V36.9187Z"
                              fill="#92DEED"
                            />
                            <path
                              d="M41.4994 33.1868C40.7402 33.1868 39.981 32.7098 39.4044 31.7478C36.1947 26.4042 33.2349 20.5514 30.6018 14.359C30.1406 13.2757 29.5015 12.4915 28.7471 12.0954C24.5957 9.91272 20.4827 7.25306 16.5234 4.19728L16.6051 3.90625C20.5596 6.96203 24.663 9.61361 28.8096 11.7882C29.6024 12.2005 30.2751 13.0251 30.7604 14.173C33.3839 20.3493 36.3389 26.186 39.539 31.5134C40.6201 33.3161 42.3787 33.308 43.455 31.5134C46.655 26.186 49.61 20.3493 52.2335 14.173C52.7188 13.0332 53.3963 12.2086 54.1891 11.7882C58.331 9.60552 62.4392 6.95395 66.3936 3.90625L66.4753 4.19728C62.516 7.26114 58.403 9.91272 54.2516 12.0954C53.4972 12.4915 52.8582 13.2757 52.3969 14.359C49.7638 20.5514 46.804 26.4042 43.5943 31.7478C43.0177 32.7098 42.2585 33.1868 41.4994 33.1868Z"
                              fill="#92DEED"
                            />
                            <path
                              d="M75.2539 72.7492C72.8851 61.092 70.5355 49.3458 68.2676 37.9877C65.9997 26.6296 63.6549 14.8834 61.2812 3.22619L61.4638 3.12109C63.8327 14.7783 66.1823 26.5245 68.4502 37.8826C70.7181 49.2407 73.0629 60.9869 75.4365 72.6441L75.2539 72.7492Z"
                              fill="#92DEED"
                            />
                            <path
                              d="M67.4711 75.7467C65.626 64.0894 63.8146 52.6666 62.0031 41.2438C60.1917 29.821 58.3802 18.4063 56.5352 6.741L56.7225 6.66016C58.5676 18.3174 60.3791 29.7402 62.1905 41.163C64.002 52.5858 65.8134 64.0005 67.6585 75.6658L67.4711 75.7467Z"
                              fill="#92DEED"
                            />
                            <path
                              d="M60.3646 79.7245C59.048 68.0753 57.6594 56.2807 56.3141 44.8821C54.9639 33.4513 53.5705 21.6323 52.2539 9.95893L52.4413 9.90234C53.7578 21.5757 55.1513 33.3866 56.5014 44.8175C57.8468 56.2241 59.2354 68.0188 60.552 79.6679L60.3646 79.7245Z"
                              fill="#92DEED"
                            />
                            <path
                              d="M52.7983 88.7627C52.0103 77.1055 51.179 65.2947 50.3718 53.88C49.5694 42.4652 48.7381 30.6544 47.9453 18.9972L48.1375 18.9648C48.9255 30.6221 49.7568 42.4329 50.564 53.8476C51.3664 65.2623 52.1977 77.0732 52.9905 88.7304L52.7983 88.7627Z"
                              fill="#92DEED"
                            />
                            <path
                              d="M45.1427 98.8698C44.8833 87.261 44.619 75.0783 44.3691 63.2917C44.1145 51.4081 43.8502 39.1203 43.5859 27.4146L43.7781 27.3984C44.0424 39.1042 44.3067 51.392 44.5613 63.2756C44.816 75.0541 45.0755 87.2368 45.3349 98.8455L45.1427 98.8617V98.8698Z"
                              fill="#92DEED"
                            />
                            <path
                              d="M38.0399 98.7161L37.8477 98.7C38.1119 87.0427 38.3233 74.8439 38.53 63.0492C38.7366 51.2545 38.948 39.0557 39.2123 27.3984L39.4044 27.4146C39.1402 39.0718 38.9288 51.2707 38.7221 63.0654C38.5155 74.86 38.2993 87.0589 38.0399 98.7161Z"
                              fill="#92DEED"
                            />
                            <path
                              d="M30.2938 89.2251L30.1016 89.1846C30.8944 77.5032 31.6728 65.5145 32.4319 53.93C33.1863 42.3859 33.9647 30.4458 34.7527 18.8047L34.9449 18.837C34.1569 30.47 33.3785 42.4102 32.6241 53.9542C31.8698 65.5468 31.0866 77.5274 30.2938 89.217V89.2251Z"
                              fill="#92DEED"
                            />
                            <path
                              d="M22.8241 79.727L22.6367 79.6704C23.9533 68.0132 25.2314 56.1296 26.4662 44.634C27.7011 33.1385 28.9792 21.2549 30.2957 9.59766L30.4831 9.65424C29.1666 21.3115 27.8885 33.1951 26.6536 44.6906C25.4188 56.1862 24.1407 68.0698 22.8241 79.727Z"
                              fill="#92DEED"
                            />
                            <path
                              d="M15.7108 75.7489L15.5234 75.668C17.3685 64.0027 19.1175 52.3051 20.8136 40.9954C22.505 29.6939 24.254 18.0124 26.099 6.36328L26.2864 6.44412C24.4462 18.0933 22.6972 29.7748 21.0058 41.0763C19.3145 52.3859 17.5607 64.0836 15.7156 75.7489H15.7108Z"
                              fill="#92DEED"
                            />
                            <path
                              d="M7.74509 72.7467L7.5625 72.6416C9.93132 60.9844 12.2665 49.505 14.5969 38.0337C16.9273 26.5624 19.2625 15.0911 21.6313 3.42578L21.8139 3.53087C19.445 15.1881 17.1099 26.6675 14.7795 38.1388C12.4491 49.6101 10.1139 61.0814 7.74509 72.7467Z"
                              fill="#92DEED"
                            />
                          </g>
                          <defs>
                            <clipPath id="clip0_138_2072">
                              <rect width="83" height="100" fill="white" />
                            </clipPath>
                          </defs>
                        </svg>